<svg data-v-1e121de1="" version="1.0" xmlns="http://www.w3.org/2000/svg" xmlns:xlink="http://www.w3.org/1999/xlink" width="100%" height="100%" viewBox="0 0 340.000000 160.000000" preserveAspectRatio="xMidYMid meet" color-interpolation-filters="sRGB" class="el-tooltip" style="margin: auto;"><rect data-v-1e121de1="" x="0" y="0" width="100%" height="100%" fill="#fff" fill-opacity="1" class="background"></rect> <rect data-v-1e121de1="" x="0" y="0" width="100%" height="100%" fill="url(#watermark)" fill-opacity="1" class="watermarklayer"></rect> <g data-v-1e121de1="" fill="#c97922" class="icon-text-wrapper icon-svg-group iconsvg" transform="translate(82.38240051269531,94.39431381225586)"><g fill="#c97922" class="iconsvg-imagesvg icon_container" transform="translate(0,0)"><rect fill="#c97922" fill-opacity="0" stroke-width="2" x="0" y="0" width="61.21137372139452" height="61.21137372139452" class="image-rect"></rect> <svg viewBox="0 0 60 67.9326923076923" x="0" y="0" width="61.21137372139452" height="61.21137372139452" class="image-svg-svg bn"><g hollow-target="iconBnOutline"><g mask="url(#e326ece9-ac9b-4ffc-8f00-e69828e1eb28)"><svg xmlns="http://www.w3.org/2000/svg" xmlns:xlink="http://www.w3.org/1999/xlink" xml:space="preserve" version="1.1" style="shape-rendering:geometricPrecision;text-rendering:geometricPrecision;image-rendering:optimizeQuality;" viewBox="0 0 312 353.25" x="0" y="0" fill-rule="evenodd" clip-rule="evenodd" width="60" height="67.9326923076923" filtersec="colorsf25141827"><defs></defs><g><path class="fil0" d="M312 99l0 155c0,8 -4,15 -11,19l-135 78c-6,3 -14,3 -21,0l-134 -78c-7,-4 -11,-11 -11,-19l0 -155c0,-8 4,-14 11,-18l134 -78c7,-4 15,-4 21,0l135 78c7,4 11,10 11,18zm-32 -1l-118 -68c-4,-3 -8,-3 -12,0l-118 68c-4,2 -7,6 -7,11l0 143 125 72c4,2 8,2 12,0l118 -68c4,-2 6,-6 6,-11l0 -136c0,-5 -2,-9 -6,-11z"></path></g></svg></g> <g filter="url(#colors8116531208)"><svg xmlns="http://www.w3.org/2000/svg" viewBox="0 0 745.93 760.99" width="45" height="50.949519230769226" x="7.5" y="8.49158653846154"><path d="M101.24 648.42S30.51 588.7 56.02 548.7c0 0 15.66-11.6 38.27 19.13 0 0 146.1 246.4 391.92 182.62 0 0 197.89-46.76 259.73-308 0 0-122.91 22.92-163.5 110.4 0 0-76.53 123.43-104.35 146.62 0 0 164.65-88.12 199.43-173.92 0 0-235.38 398.87-473.08 126.38 0 0-45.8-63.19-60.87-82.32 0 0-60.88-122.91-123.49-65.52 0 0-80.59 81.17 81.16 144.37z" fill="#000000"></path><path d="M422.97 697.69S391.7 545.8 464.18 518.55c0 0 56.81 96.24-35.95 207 0 0 41.74-108.41 31.89-139.14 0-.03-30.15 57.36-37.15 111.28z" fill="#000000"></path><path d="M246.67 403.13S92.7 431 201.19 459c0 0 236 47.27 434.48-9.21 0 0 65.63-20.5-42.86-35.14 0 0-144-13.39-239.21-20.08 0 0-258.25-6.69-196.86-56.06 0 0 48.16-24.68 172.52-33.47 0 0 244.5-23 188.93-87.85 0 0-48.69-45.18-120.66-78.23 0 0-224.21-113.56 3.79-139 0 0-111.22 13.9-57.77 62 0 0 31.75 37.23 74.62 55.64 0 0 94.2 52.71 111.67 69 0 0 90.49 48.53-42.34 92.45 0 0-68.27 24.27-174.64 38.49 0 0-128.52 19.46-56.63 47.69 0 0 7.41 20.92 237.09 29.29 0 0 295.3 16.87 146.06 61.78 0 0-23.81 8.92-36.51 12.55 0 0-70.92 28.17-278.37 33.74 0 0-208.16 1.59-211.69-60.33 0 0-20-56.64 133.86-39.21z" fill="#000000"></path></svg></g></g><mask id="e326ece9-ac9b-4ffc-8f00-e69828e1eb28"><g fill="white"><svg xmlns="http://www.w3.org/2000/svg" xmlns:xlink="http://www.w3.org/1999/xlink" xml:space="preserve" version="1.1" style="shape-rendering:geometricPrecision;text-rendering:geometricPrecision;image-rendering:optimizeQuality;" viewBox="0 0 312 353.25" x="0" y="0" fill-rule="evenodd" clip-rule="evenodd" width="60" height="67.9326923076923" filtersec="colorsf25141827"><defs></defs><g><path d="M312 99l0 155c0,8 -4,15 -11,19l-135 78c-6,3 -14,3 -21,0l-134 -78c-7,-4 -11,-11 -11,-19l0 -155c0,-8 4,-14 11,-18l134 -78c7,-4 15,-4 21,0l135 78c7,4 11,10 11,18zm-32 -1l-118 -68c-4,-3 -8,-3 -12,0l-118 68c-4,2 -7,6 -7,11l0 143 125 72c4,2 8,2 12,0l118 -68c4,-2 6,-6 6,-11l0 -136c0,-5 -2,-9 -6,-11z"></path></g></svg></g> <g fill="black" filter="url(#6d4a46c4-55db-4643-8c05-0a25b3c8b1e2)"><svg xmlns="http://www.w3.org/2000/svg" viewBox="0 0 745.93 760.99" width="45" height="50.949519230769226" x="7.5" y="8.49158653846154"><path d="M101.24 648.42S30.51 588.7 56.02 548.7c0 0 15.66-11.6 38.27 19.13 0 0 146.1 246.4 391.92 182.62 0 0 197.89-46.76 259.73-308 0 0-122.91 22.92-163.5 110.4 0 0-76.53 123.43-104.35 146.62 0 0 164.65-88.12 199.43-173.92 0 0-235.38 398.87-473.08 126.38 0 0-45.8-63.19-60.87-82.32 0 0-60.88-122.91-123.49-65.52 0 0-80.59 81.17 81.16 144.37z"></path><path d="M422.97 697.69S391.7 545.8 464.18 518.55c0 0 56.81 96.24-35.95 207 0 0 41.74-108.41 31.89-139.14 0-.03-30.15 57.36-37.15 111.28z"></path><path d="M246.67 403.13S92.7 431 201.19 459c0 0 236 47.27 434.48-9.21 0 0 65.63-20.5-42.86-35.14 0 0-144-13.39-239.21-20.08 0 0-258.25-6.69-196.86-56.06 0 0 48.16-24.68 172.52-33.47 0 0 244.5-23 188.93-87.85 0 0-48.69-45.18-120.66-78.23 0 0-224.21-113.56 3.79-139 0 0-111.22 13.9-57.77 62 0 0 31.75 37.23 74.62 55.64 0 0 94.2 52.71 111.67 69 0 0 90.49 48.53-42.34 92.45 0 0-68.27 24.27-174.64 38.49 0 0-128.52 19.46-56.63 47.69 0 0 7.41 20.92 237.09 29.29 0 0 295.3 16.87 146.06 61.78 0 0-23.81 8.92-36.51 12.55 0 0-70.92 28.17-278.37 33.74 0 0-208.16 1.59-211.69-60.33 0 0-20-56.64 133.86-39.21z"></path></svg></g><defs><filter id="6d4a46c4-55db-4643-8c05-0a25b3c8b1e2"><feGaussianBlur in="SourceGraphic" stdDeviation="1.26"></feGaussianBlur><feComponentTransfer><feFuncA type="discrete" tableValues="0 1 1 1 1 1 1 1 1 1 1 1 1 1 0"></feFuncA></feComponentTransfer></filter></defs></mask></svg> <defs><filter id="colors8116531208"><feColorMatrix type="matrix" values="0 0 0 0 0.78515625  0 0 0 0 0.47265625  0 0 0 0 0.1328125  0 0 0 1 0" class="icon-fecolormatrix"></feColorMatrix></filter> <filter id="colorsf25141827"><feColorMatrix type="matrix" values="0 0 0 0 0.99609375  0 0 0 0 0.99609375  0 0 0 0 0.99609375  0 0 0 1 0" class="icon-fecolormatrix"></feColorMatrix></filter> <filter id="colorsb892299235"><feColorMatrix type="matrix" values="0 0 0 0 0  0 0 0 0 0  0 0 0 0 0  0 0 0 1 0" class="icon-fecolormatrix"></feColorMatrix></filter></defs></g> <g transform="translate(68.21137237548828,15.435686111450195)"><g fill-rule="" class="tp-name iconsvg-namesvg"><g><path d="M0.72-21.91L4.54-21.91L4.54-30.02L10.57-30.02L10.57-21.91L16.16-21.91L16.16-17.23L10.57-17.23L10.57-9.27Q10.57-6.48 11.07-5.76L11.07-5.76Q11.83-4.68 13.77-4.68L13.77-4.68L16.16-4.68L16.16 0L11.79 0Q7.88 0 6.21-1.89Q4.54-3.78 4.54-8.23L4.54-8.23L4.54-17.23L0.72-17.23L0.72-21.91ZM30.38-22.23L30.38-22.23Q36.45-22.23 39.33-18.72L39.33-18.72Q41.98-15.52 41.98-10.66L41.98-10.66Q41.98-5.54 38.66-2.48L38.66-2.48Q35.59 0.32 30.28 0.32L30.28 0.32Q24.79 0.32 21.69-2.83L21.69-2.83Q18.81-5.67 18.81-11.12L18.81-11.12Q18.81-15.71 21.55-18.77L21.55-18.77Q24.61-22.18 30.38-22.23ZM30.42-17.64L30.42-17.64Q24.97-17.64 24.97-10.89L24.97-10.89Q24.97-8.14 25.88-6.71L25.88-6.71Q27.36-4.27 30.46-4.27L30.46-4.27Q35.82-4.27 35.82-10.98L35.82-10.98Q35.82-17.55 30.42-17.64ZM44.23-21.91L48.06-21.91L48.06-30.02L54.09-30.02L54.09-21.91L59.67-21.91L59.67-17.23L54.09-17.23L54.09-9.27Q54.09-6.48 54.59-5.76L54.59-5.76Q55.35-4.68 57.28-4.68L57.28-4.68L59.67-4.68L59.67 0L55.30 0Q51.39 0 49.73-1.89Q48.06-3.78 48.06-8.23L48.06-8.23L48.06-17.23L44.23-17.23L44.23-21.91ZM68.98-13.32L81.68-13.32L81.68-8.64L68.98-8.64Q69.17-6.48 70.38-5.58Q71.59-4.68 74.34-4.68L74.34-4.68L81.68-4.68L81.68 0L73.67 0Q71.06 0 69.41-0.47Q67.77-0.94 66.33-2.02L66.33-2.02Q62.33-5.13 62.33-11.25L62.33-11.25Q62.33-15.21 64.44-18.18L64.44-18.18Q65.88-20.20 67.91-21.06Q69.93-21.91 73.22-21.91L73.22-21.91L81.68-21.91L81.68-17.23L73.67-17.23Q71.19-17.23 70.20-16.40Q69.21-15.57 68.98-13.32L68.98-13.32ZM94.32-13.32L101.70-13.32Q101.70-15.62 100.78-16.43Q99.86-17.23 97.11-17.23L97.11-17.23L86.94-17.23L86.94-21.91L97.11-21.91Q99.86-21.91 100.89-21.80Q101.92-21.69 103.00-21.38L103.00-21.38Q108-19.48 107.73-12.33L107.73-12.33L107.73 0L95.04 0Q91.62 0 90.31-0.20Q89.01-0.40 88.02-1.03L88.02-1.03Q85.36-2.83 85.36-6.48L85.36-6.48Q85.36-8.69 86.42-10.42Q87.48-12.15 89.23-12.78L89.23-12.78Q90.77-13.32 94.32-13.32L94.32-13.32ZM101.70-4.68L101.70-8.64L94.77-8.64L93.73-8.64Q92.70-8.64 92.09-8.10Q91.48-7.56 91.48-6.61L91.48-6.61Q91.48-5.58 92.23-5.13Q92.97-4.68 94.77-4.68L94.77-4.68L101.70-4.68Z" transform="translate(-0.72, 30.015)"></path></g> <!----> <!----> <!----> <!----> <!----> <!----> <!----></g> <!----></g></g></svg>